<?xml version="1.0" encoding="UTF-8" standalone="no"?>
<svg
   viewBox="0 0 250 250"
   width="250"
   height="250"
   version="1.1"
   id="svg5"
   sodipodi:docname="github.svg"
   inkscape:version="1.4.2 (ebf0e940d0, 2025-05-08)"
   xmlns:inkscape="http://www.inkscape.org/namespaces/inkscape"
   xmlns:sodipodi="http://sodipodi.sourceforge.net/DTD/sodipodi-0.dtd"
   xmlns="http://www.w3.org/2000/svg"
   xmlns:svg="http://www.w3.org/2000/svg">
  <defs
     id="defs5" />
  <sodipodi:namedview
     id="namedview5"
     pagecolor="#ffffff"
     bordercolor="#000000"
     borderopacity="0.25"
     inkscape:showpageshadow="2"
     inkscape:pageopacity="0.0"
     inkscape:pagecheckerboard="0"
     inkscape:deskcolor="#d1d1d1"
     inkscape:zoom="0.5"
     inkscape:cx="10"
     inkscape:cy="68"
     inkscape:window-width="1920"
     inkscape:window-height="1011"
     inkscape:window-x="0"
     inkscape:window-y="0"
     inkscape:window-maximized="1"
     inkscape:current-layer="svg5" />
  <linearGradient
     id="rL2wppHyxHVbobwndsT6Ca"
     x1="4"
     x2="44"
     y1="23.507999"
     y2="23.507999"
     gradientUnits="userSpaceOnUse"
     gradientTransform="matrix(6.25,0,0,6.25,-21,-21)">
    <stop
       offset="0"
       stop-color="#4c4c4c"
       id="stop1" />
    <stop
       offset="1"
       stop-color="#343434"
       id="stop2" />
  </linearGradient>
  <g
     id="g5"
     transform="translate(-4,-4)">
    <path
       fill="url(#rL2wppHyxHVbobwndsT6Ca)"
       d="M 129,4 C 59.9625,4 4,59.9625 4,129 4,184.54375 40.25625,231.56875 90.375,247.85 h 77.25 C 217.74375,231.56875 254,184.54375 254,129 254,59.9625 198.0375,4 129,4 Z"
       id="path2"
       style="fill:url(#rL2wppHyxHVbobwndsT6Ca);stroke-width:6.25" />
    <path
       d="M 166.5625,241.475 166.5,205.2375 c 0,-5.86875 -1.375,-11.6 -4.0125,-16.79375 35.25625,-7.08125 52.4125,-27.925 52.4125,-63.60625 0,-14.09375 -4.15625,-26.5375 -12.35,-37 0.625,-1.98125 1.0875,-4.03125 1.375,-6.13125 1.175,-8.55625 -0.14375,-14.15 -1.20625,-18.65 l -0.16875,-0.725 c -1.1625,-4.975 -2.55625,-8.525 -2.6125,-8.675 l -0.69375,-1.7625 -0.69375,-1.7625 -1.8875,-0.2 -1.89375,-0.2 c 0,0 -1.24375,-0.13125 -3.13125,-0.13125 -2.61875,0 -6.5,0.2625 -10.16875,1.50625 l -1.225,0.4125 C 175.61875,53.075 171.25,54.55 165.1375,58.2 c -1.7875,1.06875 -3.74375,2.2875 -5.8375,3.65 -9.4625,-2.34375 -19.64375,-3.5375 -30.3,-3.5375 -10.7625,0 -21.03125,1.2 -30.55625,3.56875 C 96.325,60.50625 94.35625,59.275 92.55625,58.2 86.44375,54.55 82.075,53.08125 77.45,51.51875 l -1.225,-0.4125 C 72.56875,49.8625 68.68125,49.6 66.0625,49.6 c -1.8875,0 -3.13125,0.13125 -3.13125,0.13125 l -1.8875,0.2 -1.875,0.19375 -0.7,1.75625 L 57.7625,53.65 C 57.7,53.8125 56.30625,57.3625 55.14375,62.34375 L 54.975,63.0625 c -1.0625,4.49375 -2.38125,10.09375 -1.20625,18.64375 0.3,2.1625 0.78125,4.28125 1.4375,6.31875 -8.03125,10.4125 -12.1,22.7875 -12.1,36.8125 0,35.59375 17.175,56.425 52.48125,63.5625 -1.2125,2.425 -2.15625,4.9875 -2.825,7.65 -1.23125,0.41875 -2.3625,0.7 -3.3625,0.85625 -1.4875,0.225 -3.04375,0.3375 -4.61875,0.3375 -4.2875,0 -7.65625,-0.8375 -8.96875,-1.61875 -1.95625,-1.1625 -5.45,-4.54375 -8.8375,-9.4875 -2.89375,-4.21875 -7.40625,-9.7375 -12.45,-12.04375 -4.3625,-1.99375 -8.98125,-3.1375 -12.68125,-3.1375 -0.8625,0 -1.65625,0.0625 -2.35,0.175 -3.23125,0.5125 -5.93125,2.2875 -7.4,4.875 -1.26875,2.23125 -1.46875,4.83125 -0.55,7.13125 1.36875,3.425 5.31875,6.15625 8.39375,7.84375 1.5125,0.83125 4.78125,3.86875 6.6875,6.93125 1.43125,2.3 2.09375,3.9375 3.0125,6.2 0.54375,1.34375 1.14375,2.80625 1.95625,4.575 2.9375,6.3875 12.10625,12.025 13.14375,12.64375 5.0375,3.01875 13.50625,3.9875 19.73125,4.26875 l 0.76875,0.0188 c 0,0 0.0063,0 0.0063,0 1.5,0 3.5625,-0.14375 6.275,-0.44375 v 16.33125 c 0.0125,3.30625 -3.35625,4.05625 -7.8125,3.9875 l 3.4187,1.15 C 100.21875,251.325 114.28125,254 129,254 c 14.71875,0 28.78125,-2.675 41.89375,-7.35 l 4.39375,-1.6375 c -4.44375,-0.15 -8.6875,-0.875 -8.725,-3.5375 z"
       opacity="0.05"
       id="path3"
       style="stroke-width:6.25" />
    <path
       d="M 171.38125,246.48125 C 168.84375,246.775 163.375,245.8 163.375,241.5125 v -36.275 c 0,-6.8375 -2.05,-13.44375 -5.85,-19.075 36.96875,-5.98125 54.24375,-25.58125 54.24375,-61.325 0,-13.98125 -4.2875,-26.2125 -12.74375,-36.3875 0.85625,-2.28125 1.45625,-4.6875 1.8,-7.16875 1.09375,-7.975 -0.1,-13.0375 -1.15,-17.50625 l -0.16875,-0.725 c -1.1125,-4.75625 -2.425,-8.10625 -2.48125,-8.24375 l -0.69375,-1.7625 -1.89375,-0.2 c 0,0 -1.1125,-0.11875 -2.80625,-0.11875 -2.38125,0 -5.9,0.23125 -9.1625,1.34375 l -1.225,0.4125 c -4.4625,1.50625 -8.68125,2.925 -14.50625,6.4 -2.075,1.2375 -4.3875,2.69375 -6.88125,4.3375 C 150.275,62.7125 139.90625,61.4375 129,61.4375 c -11.0125,0 -21.46875,1.28125 -31.11875,3.8125 C 95.3625,63.59375 93.0375,62.13125 90.95,60.88125 c -5.825,-3.475 -10.04375,-4.9 -14.50625,-6.4 l -1.225,-0.4125 C 71.9625,52.9625 68.4375,52.725 66.05625,52.725 64.3625,52.725 63.25,52.84375 63.25,52.84375 l -1.8875,0.2 -0.70625,1.76875 C 60.6,54.95 59.2875,58.3 58.175,63.05625 l -0.16875,0.725 c -1.05625,4.46875 -2.25,9.525 -1.15,17.5 0.35,2.54375 0.975,5.00625 1.8625,7.3375 C 50.425,98.74375 46.225,110.9125 46.225,124.8375 c 0,35.64375 17.2875,55.2375 54.2875,61.2875 -2.46875,3.6875 -4.19375,7.84375 -5.08125,12.275 -2.0625,0.8125 -3.93125,1.35 -5.56875,1.6 -1.64375,0.25 -3.35625,0.375 -5.0875,0.375 -4.3125,0 -8.45625,-0.80625 -10.5625,-2.05625 -2.75,-1.63125 -6.60625,-5.7125 -9.825,-10.40625 -2.1875,-3.1875 -6.54375,-8.85625 -11.175,-10.96875 -3.96875,-1.8125 -8.1125,-2.85625 -11.38125,-2.85625 -0.6875,0 -1.3125,0.05 -1.8625,0.1375 -2.2875,0.3625 -4.175,1.575 -5.175,3.3375 -0.8,1.4 -0.93125,3.01875 -0.36875,4.425 1.11875,2.8 5.2625,5.3125 6.99375,6.2625 2.09375,1.15 5.74375,4.65 7.8375,8.025 1.56875,2.525 2.3125,4.35625 3.25625,6.66875 0.53125,1.30625 1.1125,2.73125 1.9,4.45 2.06875,4.49375 8.45625,9.2 11.90625,11.26875 4.7125,2.825 13.4625,3.6125 18.2625,3.825 L 85.275,222.5 c 1.86875,0 5,-0.28125 9.34375,-0.84375 v 19.85625 c 0,4.86875 -6.19375,5.0625 -7.7125,5.0625 -0.19375,0 3.14375,1.15 3.14375,1.15 12.26875,4.025 25.3375,6.275 38.95,6.275 13.6125,0 26.68125,-2.25 38.94375,-6.26875 0,0 3.63125,-1.275 3.4375,-1.25 z"
       opacity="0.07"
       id="path4"
       style="stroke-width:6.25" />
    <path
       fill="#ffffff"
       d="m 208.65,124.8375 c 0,-14.4375 -4.8875,-26.4125 -13.23125,-35.8 0.90625,-2.03125 1.85,-4.75625 2.31875,-8.18125 1.075,-7.8125 -0.19375,-12.5 -1.26875,-17.0875 -1.075,-4.5875 -2.34375,-7.8125 -2.34375,-7.8125 0,0 -5.7625,-0.5875 -10.64375,1.075 -4.88125,1.6625 -9.08125,2.93125 -15.1375,6.54375 -2.83125,1.6875 -5.68125,3.5375 -7.9375,5.0375 -9.64375,-2.675 -20.25,-4.05 -31.40625,-4.05 -11.25625,0 -21.95625,1.38125 -31.66875,4.075 C 95.06875,67.13125 92.2,65.26875 89.35,63.56875 83.29375,59.95625 79.09375,58.6875 74.2125,57.025 69.33125,55.3625 63.56875,55.95 63.56875,55.95 c 0,0 -1.26875,3.225 -2.34375,7.8125 -1.075,4.5875 -2.34375,9.275 -1.26875,17.0875 0.48125,3.5125 1.45625,6.2875 2.3875,8.33125 -8.1875,9.33125 -12.9875,21.23125 -12.9875,35.65 0,37.39375 20.2,54.4625 57.00625,58.96875 -4.29375,4.5375 -7.175,10.35 -8.14375,16.81875 -2.41875,1.0625 -5.20625,2.0625 -7.8875,2.4625 -6.9,1.04375 -14.19375,0 -17.70625,-2.08125 -3.5125,-2.08125 -7.68125,-6.76875 -10.80625,-11.33125 -2.6375,-3.85 -6.44375,-8.31875 -9.89375,-9.89375 -4.55625,-2.08125 -8.9875,-2.8625 -11.45625,-2.475 -2.475,0.39375 -3.64375,2.2125 -3.125,3.51875 0.51875,1.3 2.99375,3.25625 5.6,4.6875 2.60625,1.43125 6.64375,5.3375 8.9875,9.1125 2.6125,4.2125 3.125,6.64375 5.3375,11.45625 1.55625,3.3875 6.88125,7.61875 10.675,9.89375 3.25625,1.95625 9.7625,3.06875 16.8,3.3875 2.43125,0.1125 8.175,-0.6 13.01875,-1.2875 v 23.4375 c 0,3.99375 -3.65625,7.03125 -7.44375,6.33125 C 102.475,251.925 115.45625,254 129,254 c 13.5375,0 26.51875,-2.075 38.6875,-6.15 -3.78125,0.69375 -7.4375,-2.34375 -7.4375,-6.3375 v -36.275 c 0,-8.30625 -3.29375,-15.8125 -8.58125,-21.40625 36.5375,-4.3875 56.98125,-21.05 56.98125,-58.99375 z M 49.24375,183.54375 c -0.9625,-0.49375 -1.48125,-1.40625 -1.15625,-2.05 0.325,-0.64375 1.375,-0.7625 2.3375,-0.26875 0.9625,0.49375 1.48125,1.40625 1.15625,2.05 -0.325,0.64375 -1.375,0.7625 -2.3375,0.26875 z m 7.575,4.71875 c -0.50625,0.55 -1.59375,0.375 -2.43125,-0.3875 -0.8375,-0.7625 -1.10625,-1.83125 -0.6,-2.38125 0.50625,-0.55 1.59375,-0.375 2.43125,0.3875 0.8375,0.7625 1.10625,1.83125 0.6,2.38125 z m 4.7125,7.8125 c -0.6375,0.45 -1.71875,0.0312 -2.4125,-0.9375 -0.69375,-0.96875 -0.7375,-2.125 -0.1,-2.575 0.6375,-0.45 1.71875,-0.0312 2.4125,0.9375 0.6875,0.96875 0.7375,2.125 0.1,2.575 z M 68.3,201.95625 c -0.43125,0.7 -1.65625,0.73125 -2.73125,0.075 -1.075,-0.65625 -1.6,-1.75625 -1.16875,-2.45625 0.43125,-0.7 1.65625,-0.73125 2.73125,-0.075 1.075,0.65625 1.6,1.75625 1.16875,2.45625 z m 6.4,5.75625 c -1.33125,-0.1625 -2.31875,-0.99375 -2.20625,-1.85625 0.10625,-0.8625 1.275,-1.425 2.6,-1.2625 1.33125,0.1625 2.31875,0.99375 2.20625,1.85625 -0.10625,0.85625 -1.26875,1.425 -2.6,1.2625 z m 10.31875,1.49375 C 83.6,209.125 82.49375,208.3125 82.55,207.4 c 0.05625,-0.9125 1.25,-1.59375 2.66875,-1.5125 1.41875,0.0813 2.525,0.89375 2.46875,1.80625 -0.05625,0.91875 -1.25,1.59375 -2.66875,1.5125 z m 9.7375,-0.975 c -1.5125,0 -2.7375,-0.7875 -2.7375,-1.75625 0,-0.96875 1.225,-1.75625 2.7375,-1.75625 1.5125,0 2.7375,0.7875 2.7375,1.75625 0,0.96875 -1.23125,1.75625 -2.7375,1.75625 z"
       id="path5"
       style="stroke-width:6.25" />
  </g>
</svg>
