<?xml version="1.0" encoding="UTF-8" standalone="no"?>
<svg
   viewBox="0 0 250 250"
   width="250"
   height="250"
   version="1.1"
   id="svg1"
   sodipodi:docname="telegram.svg"
   inkscape:version="1.4.2 (ebf0e940d0, 2025-05-08)"
   xmlns:inkscape="http://www.inkscape.org/namespaces/inkscape"
   xmlns:sodipodi="http://sodipodi.sourceforge.net/DTD/sodipodi-0.dtd"
   xmlns="http://www.w3.org/2000/svg"
   xmlns:svg="http://www.w3.org/2000/svg">
  <defs
     id="defs1" />
  <sodipodi:namedview
     id="namedview1"
     pagecolor="#ffffff"
     bordercolor="#000000"
     borderopacity="0.25"
     inkscape:showpageshadow="2"
     inkscape:pageopacity="0.0"
     inkscape:pagecheckerboard="0"
     inkscape:deskcolor="#d1d1d1"
     inkscape:zoom="1.3467975"
     inkscape:cx="131.42288"
     inkscape:cy="67.567694"
     inkscape:window-width="1920"
     inkscape:window-height="1011"
     inkscape:window-x="0"
     inkscape:window-y="0"
     inkscape:window-maximized="1"
     inkscape:current-layer="svg1" />
  <path
     d="m 125,0 c 69.03804,0 125,55.961957 125,125 0,69.03804 -55.96196,125 -125,125 C 55.961957,250 0,194.03804 0,125 0,55.961957 55.961957,0 125,0 Z m 43.11957,175.95109 c 2.29891,-7.05435 13.07065,-77.3587 14.40217,-91.21196 C 182.92391,80.543477 181.59782,77.755435 179,76.51087 175.85869,75 171.20652,75.755435 165.80978,77.701087 158.40761,80.369565 63.777175,120.54891 58.309783,122.875 c -5.184783,2.20109 -10.086958,4.60326 -10.086958,8.08152 0,2.44565 1.451088,3.82065 5.451088,5.25 4.163045,1.4837 14.64674,4.66305 20.836957,6.36957 5.961955,1.64673 12.75,0.2174 16.554348,-2.14674 4.032607,-2.50544 50.570652,-33.64674 53.913042,-36.375 3.33696,-2.72826 6,0.7663 3.27174,3.5 -2.72826,2.72826 -34.67391,33.73369 -38.88587,38.02717 -5.11413,5.21196 -1.48369,10.61413 1.94565,12.77717 3.91848,2.4674 32.09783,21.36957 36.34239,24.40218 4.24457,3.03261 8.54892,4.40761 12.48913,4.40761 3.94022,0 6.01631,-5.19022 7.97827,-11.21739 z"
     id="path1"
     style="fill:#ffffff;stroke-width:5.43477" />
</svg>
