<?xml version="1.0" encoding="UTF-8" standalone="no"?>
<svg
   viewBox="0 0 250 250"
   width="250"
   height="250"
   version="1.1"
   id="svg1"
   sodipodi:docname="x.svg"
   inkscape:version="1.4.2 (ebf0e940d0, 2025-05-08)"
   xmlns:inkscape="http://www.inkscape.org/namespaces/inkscape"
   xmlns:sodipodi="http://sodipodi.sourceforge.net/DTD/sodipodi-0.dtd"
   xmlns="http://www.w3.org/2000/svg"
   xmlns:svg="http://www.w3.org/2000/svg">
  <defs
     id="defs1" />
  <sodipodi:namedview
     id="namedview1"
     pagecolor="#ffffff"
     bordercolor="#000000"
     borderopacity="0.25"
     inkscape:showpageshadow="2"
     inkscape:pageopacity="0.0"
     inkscape:pagecheckerboard="0"
     inkscape:deskcolor="#d1d1d1"
     inkscape:zoom="0.54754202"
     inkscape:cx="193.59245"
     inkscape:cy="3.6526877"
     inkscape:window-width="1920"
     inkscape:window-height="1011"
     inkscape:window-x="0"
     inkscape:window-y="0"
     inkscape:window-maximized="1"
     inkscape:current-layer="svg1" />
  <path
     id="path2-2-7"
     style="fill:#ffffff;stroke-width:216.132;fill-opacity:1"
     d="M 125 0 C 55.9644 0 -1e-05 55.964408 0 125 C -1e-05 194.03559 55.9644 249.99999 125 250 C 194.0356 249.99999 250.00001 194.03559 250 125 C 250.00001 55.964408 194.0356 7.7666216e-16 125 0 z M 52.40625 51.042969 L 99.142578 51.042969 L 133.64062 101.33398 L 177.08398 51.042969 L 194.9043 51.042969 L 141.57617 112.83008 L 141.47461 112.75 L 200.62109 198.95703 L 153.88281 198.95703 L 115.49805 143.00586 L 67.199219 198.95703 L 49.378906 198.95703 L 107.61523 131.52148 L 107.62305 131.5293 L 52.40625 51.042969 z M 77.892578 64.490234 L 160.94336 185.50977 L 175.06641 185.50977 L 92.082031 64.490234 L 77.892578 64.490234 z " />
</svg>
